# Wavefront Obj file
# 
# verts: 90 uv-s: 102
mtllib SeaMushRoom.mtl

g Group51316

v 0.845448 0.600184 0.182406
v -0.464490 0.484057 -1.170423
v 0.042213 0.490270 -1.052711
v -0.726247 0.448117 -0.177644
v -0.396380 0.673592 -0.505079
v 0.180955 0.483883 0.433803
v -0.203282 0.667490 0.422517
v -0.657557 0.563181 0.598625
v 0.689980 0.468479 -0.344382
v 0.568350 0.665236 -0.985673
v -0.953344 0.510505 0.257858
v 0.148496 0.647985 0.562832
v 0.535671 0.663370 -0.525960
v -0.269629 0.473041 0.729286
v -0.712589 0.644418 -0.896107
v -0.993097 0.625810 -0.625753
v 0.635263 0.459450 0.039327
v -1.105362 0.521422 -0.068606
v 0.416259 0.470888 0.635010
v 0.173770 0.656201 -0.698108
v -0.610534 0.465089 0.591118
v -0.017791 0.569084 -0.140610
v 0.093374 0.404018 -0.256593
v -0.897555 0.670698 -0.182177
v 0.409070 0.542480 -1.314345
v -0.248909 0.528821 0.759937
v 0.129200 0.578983 -1.352316
v 0.608615 0.554902 0.660198
v -0.924058 0.485642 -0.741871
v 1.034181 0.539567 0.024709
v -0.996177 0.550204 -0.753468
v 1.031044 0.560954 -0.703859
v -0.635379 0.682059 -0.109677
v 1.037333 0.463767 0.084405
v -0.483967 0.553568 -1.235075
v -0.517798 0.449579 0.270904
v 0.701258 0.664543 -0.763772
v -0.350624 0.618506 0.611813
v -0.083256 0.678299 -1.065299
v 0.901379 0.522068 0.377874
v 0.648282 0.594709 -1.188161
v -0.561484 0.652140 0.386730
v 0.621947 0.643666 -0.064425
v 0.127101 0.503936 -1.337511
v 0.204281 0.566284 0.755863
v -1.133838 0.531742 -0.461125
v 0.898130 0.598830 -0.941390
v -0.264470 0.461242 -0.869044
v -0.516403 0.705539 -0.641877
v -0.124817 0.398942 -0.082229
v 0.248038 0.494989 0.767520
v -0.168491 0.608486 -1.275666
v -0.144271 0.584965 -0.313753
v 0.130737 0.581246 -0.321724
v -0.973654 0.582321 0.207637
v -0.061022 0.533016 -1.381052
v 0.495804 0.648396 0.418280
v -0.035426 0.666151 -0.727801
v -1.135821 0.594412 -0.224950
v 0.519769 0.508529 -1.197946
v 0.178595 0.661778 0.382649
v -0.797986 0.581805 -0.969679
v -0.764102 0.454197 0.188607
v 0.523085 0.493716 -0.807826
v -0.779879 0.519111 -0.990706
v 0.019201 0.686830 -0.938880
v -1.031029 0.475989 -0.037478
v 1.073038 0.480100 -0.442966
v -0.374616 0.669159 0.219504
v 0.678872 0.486305 0.597407
v -0.604446 0.465333 -0.925294
v -0.819061 0.674047 -0.558568
v 0.908064 0.624389 -0.573334
v -0.404016 0.701699 -0.839154
v -0.438494 0.656517 -0.078919
v 0.999945 0.499801 -0.809967
v 0.162150 0.613831 -1.269340
v -0.528355 0.456949 -0.677470
v -0.837147 0.655116 0.150159
v -0.133430 0.445946 0.669294
v 1.097132 0.521330 -0.289700
v -0.727921 0.676413 0.077987
v -0.090089 0.397754 -0.408000
v -0.471486 0.626708 -1.144923
v 0.754976 0.528287 -1.115948
v 0.397324 0.684907 -0.815330
v 0.435394 0.477280 0.348928
v -0.179424 0.463627 0.390382
v 0.437934 0.456271 -0.594634
v -1.035681 0.641967 -0.207637
# 90 positions

vt 0.194888 0.355112
vt 0.157267 0.226112
vt 0.215875 0.258053
vt 0.448049 0.548220
vt 0.503963 0.581517
vt 0.396851 0.627863
vt 0.900909 0.737512
vt 0.766789 0.705794
vt 0.865959 0.666125
vt 0.728506 0.745194
vt 0.724621 0.877595
vt 0.635726 0.852811
vt 0.344916 0.142881
vt 0.256061 0.103220
vt 0.364537 0.079251
vt 0.650085 0.320554
vt 0.670673 0.221883
vt 0.686103 0.447991
vt 0.527957 0.664168
vt 0.559005 0.745124
vt 0.479537 0.776999
vt 0.826763 0.604253
vt 0.733334 0.542050
vt 0.447345 0.287690
vt 0.467743 0.400386
vt 0.382154 0.356585
vt 0.548958 0.179660
vt 0.566765 0.269172
vt 0.446643 0.194322
vt 0.567274 0.561354
vt 0.624920 0.496631
vt 0.582808 0.582108
vt 0.598705 0.670669
vt 0.791036 0.825225
vt 0.064851 0.272484
vt 0.022650 0.318641
vt 0.075857 0.199409
vt 0.092242 0.377872
vt 0.062830 0.480138
vt 0.042429 0.352646
vt 0.574750 0.450694
vt 0.616269 0.475640
vt 0.580833 0.364178
vt 0.480332 0.245135
vt 0.430210 0.693704
vt 0.304159 0.703899
vt 0.357879 0.414089
vt 0.468785 0.482496
vt 0.360719 0.579429
vt 0.171810 0.599960
vt 0.205295 0.500992
vt 0.293092 0.623079
vt 0.514292 0.626861
vt 0.585410 0.161784
vt 0.619923 0.263509
vt 0.976123 0.715490
vt 0.933278 0.621096
vt 0.953290 0.614148
vt 0.663253 0.422069
vt 0.615977 0.365452
vt 0.643861 0.372180
vt 0.093405 0.596357
vt 0.035505 0.439567
vt 0.642666 0.232876
vt 0.567032 0.801145
vt 0.182814 0.669614
vt 0.104157 0.569171
vt 0.340851 0.245568
vt 0.470348 0.106652
vt 0.701196 0.697080
vt 0.654570 0.533849
vt 0.283702 0.270490
vt 0.311431 0.376892
vt 0.527272 0.516602
vt 0.541379 0.428214
vt 0.516065 0.382256
vt 0.117020 0.180026
vt 0.170821 0.115391
vt 0.258924 0.073901
vt 0.837478 0.846336
vt 0.926600 0.845516
vt 0.529217 0.632676
vt 0.441016 0.720095
vt 0.956525 0.821331
vt 0.977359 0.759896
vt 0.323456 0.046758
vt 0.276345 0.718016
vt 0.478798 0.841053
vt 0.603752 0.961703
vt 0.528084 0.909911
vt 0.856742 0.494547
vt 0.918165 0.532253
vt 0.737192 0.964355
vt 0.828329 0.951931
vt 0.477445 0.074197
vt 0.640979 0.603506
vt 0.134414 0.301946
vt 0.319170 0.187362
vt 0.961059 0.757048
vt 0.879147 0.587774
vt 0.595350 0.146179
vt 0.904997 0.897637
# 102 texture coordinates

vn -0.062539 0.995033 0.077450
vn 0.110012 0.977378 -0.180636
vn 0.024067 0.999514 0.019836
vn -0.018334 0.993197 0.114996
vn -0.097577 0.915361 0.390632
vn 0.034655 0.959707 0.278859
vn 0.048601 -0.995109 -0.085999
vn -0.012821 -0.997007 -0.076242
vn -0.006284 -0.994745 -0.102194
vn 0.079663 -0.996822 -0.000345
vn 0.054899 -0.997797 -0.037256
vn 0.043079 -0.998724 0.026352
vn -0.009312 0.980316 -0.197216
vn 0.052746 0.953113 -0.297984
vn -0.100426 0.884214 -0.456159
vn -0.661009 -0.733832 -0.156707
vn -0.187314 -0.976936 -0.102514
vn -0.211994 -0.976940 0.025413
vn 0.018581 -0.996705 0.078950
vn 0.029419 -0.998674 0.042253
vn 0.032258 -0.997387 0.064640
vn -0.072584 -0.995780 -0.056151
vn -0.089694 -0.995749 -0.020948
vn 0.174676 0.976245 0.128196
vn 0.182811 0.982878 -0.023025
vn 0.160353 0.980675 0.112089
vn -0.217872 0.951200 -0.218518
vn -0.164849 0.983869 -0.069472
vn -0.073469 0.987768 -0.137538
vn -0.487480 0.564346 0.666240
vn -0.581404 -0.709454 0.398302
vn -0.225997 -0.921729 0.315183
vn 0.037057 -0.997703 0.056703
vn 0.091187 -0.990443 -0.103478
vn 0.505619 0.792256 -0.341585
vn 0.160056 -0.978925 -0.126837
vn 0.456860 -0.714669 -0.529649
vn 0.258260 0.965836 0.021506
vn 0.746721 0.663862 0.041171
vn 0.707385 0.695728 -0.124775
vn -0.279369 0.935901 0.214577
vn -0.577628 0.730082 0.365138
vn -0.115361 0.993102 0.020959
vn -0.002891 0.999801 0.019732
vn 0.056772 0.799689 0.597725
vn 0.322636 0.777138 0.540336
vn 0.006624 0.993110 -0.117001
vn 0.081886 0.990848 -0.107312
vn -0.007298 0.996058 -0.088401
vn 0.261423 0.959514 0.104842
vn 0.018272 0.999826 -0.003781
vn 0.139665 0.980778 0.136265
vn -0.127453 0.550947 0.824750
vn -0.521777 0.671283 -0.526430
vn -0.426567 0.883529 -0.193436
vn -0.147678 -0.553430 -0.819699
vn -0.087840 -0.969563 -0.228541
vn -0.449152 0.056468 -0.891669
vn -0.917694 -0.306611 0.252639
vn -0.338837 0.939718 0.046043
vn -0.802782 0.593723 0.055076
vn 0.173783 -0.983202 0.055794
vn 0.149999 -0.986716 -0.062394
vn -0.841306 0.068813 -0.536161
vn 0.008963 -0.997345 0.072263
vn 0.736196 0.428740 0.523639
vn 0.512149 0.851942 0.109078
vn 0.081971 0.983201 0.163086
vn -0.179813 0.921760 -0.343549
vn -0.011913 -0.998099 0.060465
vn -0.093000 -0.994753 0.042642
vn -0.045667 0.985094 0.165842
vn -0.087713 0.991747 0.093505
vn -0.129707 0.970677 0.202394
vn -0.059540 0.996608 0.056815
vn 0.081192 0.996099 0.034555
vn 0.263203 0.833286 -0.486167
vn 0.308511 -0.076414 -0.948147
vn 0.079691 0.686839 -0.722427
vn 0.037929 -0.996923 -0.068598
vn 0.051715 -0.993751 -0.098912
vn -0.136357 -0.798782 0.585964
vn 0.123196 -0.716310 0.686820
vn 0.231529 -0.927857 0.292364
vn -0.465577 -0.728353 -0.502733
vn -0.029004 -0.997091 0.070492
vn 0.135722 0.990544 -0.020065
vn 0.026283 0.999601 -0.010311
vn 0.035227 -0.981628 -0.187525
vn -0.067263 -0.994771 -0.076859
# 90 normals

usemtl initialShadingGroup
f 13/1/1 10/2/2 86/3/3
f 7/4/4 38/5/5 12/6/6
f 3/7/7 83/8/8 48/9/9
f 23/10/10 9/11/11 17/12/12
f 39/13/13 77/14/14 52/15/15
f 46/16/16 29/17/17 67/18/18
f 80/19/19 6/20/20 19/21/21
f 78/22/22 83/8/8 4/23/23
f 5/24/24 75/25/25 53/26/26
f 15/27/27 72/28/28 74/29/29
f 8/30/30 11/31/31 21/32/32
f 80/19/19 88/33/33 6/20/20
f 89/34/34 83/8/8 3/7/7
f 39/13/13 10/2/2 77/14/14
f 47/35/35 76/36/36 85/37/37
f 73/38/38 81/39/39 32/40/40
f 8/30/30 79/41/41 55/42/42
f 24/43/43 49/44/44 72/28/28
f 45/45/45 28/46/46 12/6/6
f 22/47/47 69/48/48 61/49/49
f 1/50/50 43/51/51 57/52/52
f 1/50/50 73/38/38 43/51/51
f 21/32/32 26/53/53 8/30/30
f 38/5/5 45/45/45 12/6/6
f 62/54/54 16/55/55 15/27/27
f 56/56/56 2/57/57 35/58/58
f 18/59/59 67/18/18 11/31/31
f 90/60/60 59/61/61 55/42/42
f 81/39/39 34/62/62 68/63/63
f 57/52/52 28/46/46 1/50/50
f 16/55/55 59/61/61 90/60/60
f 16/55/55 31/64/64 46/16/16
f 19/21/21 87/65/65 17/12/12
f 40/66/66 34/62/62 30/67/67
f 5/24/24 53/26/26 58/68/68
f 84/69/69 74/29/29 39/13/13
f 11/31/31 67/18/18 21/32/32
f 4/23/23 50/70/70 63/71/71
f 22/47/47 61/49/49 43/51/51
f 20/72/72 54/73/73 13/1/1
f 50/70/70 6/20/20 88/33/33
f 87/65/65 50/70/70 17/12/12
f 7/4/4 42/74/74 38/5/5
f 82/75/75 33/76/76 49/44/44
f 41/77/77 25/78/78 27/79/79
f 64/80/80 3/7/7 60/81/81
f 21/32/32 14/82/82 26/53/53
f 51/83/83 80/19/19 19/21/21
f 25/84/78 56/56/56 27/85/79
f 27/79/79 56/86/56 52/15/15
f 51/83/83 70/87/84 28/46/46
f 70/88/84 34/89/62 40/90/66
f 29/91/17 78/22/22 4/23/23
f 35/58/58 2/57/57 65/92/85
f 30/67/67 73/38/38 1/50/50
f 1/50/50 40/66/66 30/67/67
f 31/64/64 29/17/17 46/16/16
f 2/57/57 29/91/17 65/92/85
f 9/11/11 68/93/63 34/89/62
f 76/94/36 64/80/80 60/81/81
f 69/48/48 33/76/76 82/75/75
f 22/47/47 75/25/25 69/48/48
f 17/12/12 9/11/11 34/89/62
f 19/21/21 17/12/12 34/89/62
f 52/15/15 56/86/56 35/95/58
f 84/69/69 35/95/58 62/54/54
f 36/96/86 80/19/19 21/32/32
f 67/18/18 63/71/71 21/32/32
f 13/1/1 37/97/87 10/2/2
f 73/38/38 32/40/40 47/35/35
f 8/30/30 26/53/53 38/5/5
f 8/30/30 38/5/5 42/74/74
f 10/2/2 39/13/13 66/98/88
f 39/13/13 49/44/44 66/98/88
f 28/46/46 40/66/66 1/50/50
f 28/46/46 70/87/84 40/66/66
f 10/2/2 41/77/77 77/14/14
f 37/97/87 47/35/35 10/2/2
f 90/60/60 55/42/42 79/41/41
f 82/75/75 49/44/44 24/43/43
f 13/1/1 43/51/51 37/97/87
f 13/1/1 54/73/73 43/51/51
f 60/81/81 3/7/7 44/99/89
f 44/99/89 3/7/7 48/9/9
f 45/45/45 38/5/5 26/53/53
f 26/53/53 14/82/82 51/83/83
f 16/55/55 46/16/16 59/61/61
f 46/16/16 67/18/18 18/59/59
f 47/35/35 85/37/37 41/77/77
f 47/35/35 41/77/77 10/2/2
f 44/99/89 48/9/9 2/57/57
f 2/57/57 71/100/90 29/91/17
f 49/44/44 5/24/24 58/68/68
f 49/44/44 33/76/76 5/24/24
f 83/8/8 50/70/70 4/23/23
f 50/70/70 23/10/10 17/12/12
f 26/53/53 51/83/83 45/45/45
f 51/83/83 28/46/46 45/45/45
f 84/69/69 15/27/27 74/29/29
f 84/69/69 62/54/54 15/27/27
f 22/47/47 53/26/26 75/25/25
f 20/72/72 53/26/26 54/73/73
f 54/73/73 22/47/47 43/51/51
f 53/26/26 22/47/47 54/73/73
f 55/42/42 18/59/59 11/31/31
f 55/42/42 11/31/31 8/30/30
f 44/99/89 2/57/57 56/56/56
f 44/99/89 56/56/56 25/84/78
f 12/6/6 28/46/46 57/52/52
f 61/49/49 57/52/52 43/51/51
f 58/68/68 53/26/26 20/72/72
f 10/2/2 66/98/88 86/3/3
f 55/42/42 59/61/61 18/59/59
f 59/61/61 46/16/16 18/59/59
f 25/84/78 60/81/81 44/99/89
f 41/77/77 85/37/37 25/78/78
f 61/49/49 7/4/4 12/6/6
f 61/49/49 12/6/6 57/52/52
f 62/54/54 31/64/64 16/55/55
f 35/95/58 65/101/85 62/54/54
f 63/71/71 36/96/86 21/32/32
f 63/71/71 50/70/70 36/96/86
f 9/11/11 64/80/80 68/93/63
f 9/11/11 23/10/10 89/34/34
f 65/101/85 29/17/17 31/64/64
f 62/54/54 65/101/85 31/64/64
f 49/44/44 58/68/68 66/98/88
f 66/98/88 58/68/68 20/72/72
f 63/71/71 67/18/18 4/23/23
f 29/91/17 4/23/23 67/18/18
f 68/63/63 32/40/40 81/39/39
f 47/35/35 32/40/40 76/36/36
f 7/4/4 61/49/49 69/48/48
f 69/48/48 82/75/75 7/4/4
f 70/88/84 19/21/21 34/89/62
f 51/83/83 19/21/21 70/88/84
f 71/100/90 78/22/22 29/91/17
f 2/57/57 48/9/9 71/100/90
f 16/55/55 72/28/28 15/27/27
f 72/28/28 16/55/55 90/60/60
f 73/38/38 37/97/87 43/51/51
f 73/38/38 47/35/35 37/97/87
f 39/13/13 74/29/29 49/44/44
f 72/28/28 49/44/44 74/29/29
f 75/25/25 33/76/76 69/48/48
f 5/24/24 33/76/76 75/25/25
f 68/93/63 64/80/80 76/94/36
f 68/63/63 76/36/36 32/40/40
f 77/14/14 27/79/79 52/15/15
f 41/77/77 27/79/79 77/14/14
f 48/9/9 78/22/22 71/100/90
f 78/22/22 48/9/9 83/8/8
f 79/41/41 8/30/30 42/74/74
f 7/4/4 82/75/75 42/74/74
f 14/82/82 80/19/19 51/83/83
f 14/82/82 21/32/32 80/19/19
f 30/67/67 81/39/39 73/38/38
f 34/62/62 81/39/39 30/67/67
f 24/43/43 79/41/41 82/75/75
f 79/41/41 42/74/74 82/75/75
f 83/8/8 89/34/34 23/10/10
f 83/8/8 23/10/10 50/70/70
f 39/13/13 52/15/15 84/69/69
f 52/15/15 35/95/58 84/69/69
f 85/102/37 76/94/36 60/81/81
f 85/102/37 60/81/81 25/84/78
f 86/3/3 20/72/72 13/1/1
f 20/72/72 86/3/3 66/98/88
f 50/70/70 87/65/65 6/20/20
f 19/21/21 6/20/20 87/65/65
f 36/96/86 88/33/33 80/19/19
f 50/70/70 88/33/33 36/96/86
f 89/34/34 3/7/7 64/80/80
f 9/11/11 89/34/34 64/80/80
f 72/28/28 90/60/60 24/43/43
f 24/43/43 90/60/60 79/41/41

# 176 faces
